<svg width="790" height="790" viewBox="0 0 790 790" fill="none" xmlns="http://www.w3.org/2000/svg">
<path d="M608.255 651.078H197.541" stroke="#949494" stroke-width="1.5"/>
<path d="M249.447 367.514C249.447 367.514 337.654 490.145 252.188 623.427L250.12 649.902L213.081 629.557" stroke="#949494"/>
<path d="M153.284 344.467L154.049 428.192V650.192H219.315L212.415 637.828L234.979 363.477L153.284 344.467Z" stroke="#949494"/>
<path d="M187.004 194.852V220.561L218.852 228.389V185.003L187.004 177.175V194.852V194.852Z" stroke="#949494"/>
<path d="M204.995 203.747C204.524 203.747 204.143 203.366 204.143 202.896C204.143 202.425 204.524 202.044 204.995 202.044C205.465 202.044 205.846 202.425 205.846 202.896C205.846 203.366 205.465 203.747 204.995 203.747Z" fill="#949494"/>
<path d="M191.915 203.747C191.445 203.747 191.064 203.366 191.064 202.896C191.064 202.425 191.445 202.044 191.915 202.044C192.386 202.044 192.767 202.425 192.767 202.896C192.767 203.366 192.386 203.747 191.915 203.747Z" fill="#949494"/>
<path d="M195.753 207.975V194.852H189.178" stroke="#949494" stroke-width="1.5"/>
<path d="M206.599 194.852H200.025" stroke="#949494" stroke-width="1.5"/>
<path d="M216.755 206.133C217.935 206.133 219.067 205.664 219.902 204.83C220.737 203.995 221.206 202.863 221.206 201.682" stroke="#949494" stroke-width="1.5"/>
<path d="M198.628 211.211C201.116 211.211 203.133 209.194 203.133 206.706" stroke="#949494" stroke-width="1.5" stroke-linecap="round" stroke-linejoin="round"/>
<path d="M187.004 220.561L218.852 228.388" stroke="#949494" stroke-width="1.5"/>
<path d="M195.753 207.986L198.628 208.693" stroke="#949494" stroke-width="1.5" stroke-linecap="round"/>
<path d="M216.298 200.508C216.298 200.508 210.094 194.704 209.994 189.1C209.994 189.1 186.578 192.602 183.076 191.602L185.577 186.798C182.764 185.702 180.052 184.363 177.472 182.796C177.472 182.796 207.592 161.782 221.301 183.896C221.301 183.896 230.476 188.299 220.986 200.508" stroke="#949494" stroke-width="1.5"/>
<path d="M153.667 274.426V343.973L252.189 368.187V290.732C252.189 263.268 233.439 239.352 206.768 232.796H206.768C193.978 229.653 180.452 232.563 170.087 240.689C159.722 248.816 153.667 261.255 153.667 274.426L153.667 274.426Z" stroke="#949494"/>
<path d="M169.366 320.687C182.95 336.307 212.448 334.597 241.152 325.761C235.598 336.705 220.586 344.55 202.928 344.55C180.545 344.55 162.401 331.95 162.401 316.406C162.401 314.953 162.561 313.504 162.876 312.086C164.833 315.103 167.002 317.978 169.366 320.687Z" fill="#949494"/>
<path d="M212.826 637.53L235.4 362.995" stroke="#949494" stroke-width="1.5"/>
<path d="M159.813 252.273C159.813 252.273 139.344 286.165 169.367 320.688C199.39 355.211 307.158 305.077 312.262 280.461C317.365 255.844 313.463 257.946 307.759 263.049C302.055 268.153 299.053 266.952 299.053 266.952C299.053 266.952 298.152 257.345 295.15 260.047C292.148 262.749 291.248 267.852 291.248 267.852L218.852 287.065L200.881 257.345" stroke="#949494" stroke-width="1.5"/>
<path d="M223.062 239.471C223.062 239.471 249.794 256.113 260.764 275.942" stroke="#949494" stroke-width="1.5"/>
<path d="M295.051 299.862C295.051 299.862 333.376 303.376 352.589 306.578C371.801 309.78 350.187 313.783 350.187 313.783C350.187 313.783 340.18 328.192 322.969 322.589C322.969 322.589 287.879 339.4 252.189 330.194" stroke="#949494" stroke-width="1.5"/>
<rect width="235.399" height="170.686" transform="matrix(-1 0 0 1 595.945 379.032)" stroke="#949494"/>
<path d="M360.547 379.032V549.718" stroke="#949494" stroke-width="1.5"/>
<path d="M557.725 437.523L559.818 430.488C563.128 419.365 573.354 411.738 584.959 411.738H637L595.945 549.718H360.547L393.929 437.523H557.725Z" stroke="#949494"/>
<path d="M595.945 549.718H360.547" stroke="#949494" stroke-width="1.5"/>
<path d="M360.547 549.718L393.929 437.523H557.725" stroke="#949494" stroke-width="1.5"/>
<path d="M444.27 184.85H429.927L385.081 229.696V347.659H510.107V317.516" stroke="#949494"/>
<path d="M510.107 347.659H385.081V229.696" stroke="#949494" stroke-width="1.5"/>
<path d="M487.861 254.089H435.648" stroke="#949494" stroke-width="1.5"/>
<path d="M487.861 265.083H435.648" stroke="#949494" stroke-width="1.5"/>
<path d="M487.861 276.076H435.648" stroke="#949494" stroke-width="1.5"/>
<path d="M487.861 287.071H461.755" stroke="#949494" stroke-width="1.5"/>
<path d="M429.453 199.484V317.447H554.479V154.547H474.59" stroke="#949494" stroke-width="1.5"/>
<path d="M429.453 199.484L474.299 154.638V199.484H429.453V199.484Z" stroke="#949494"/>
<path d="M518.073 223.877H465.86" stroke="#949494" stroke-width="1.5"/>
<path d="M518.073 234.871H465.86" stroke="#949494" stroke-width="1.5"/>
<path d="M518.073 245.866H465.86" stroke="#949494" stroke-width="1.5"/>
<path d="M518.073 256.859H491.966" stroke="#949494" stroke-width="1.5"/>
</svg>
