<svg width="121" height="286" viewBox="0 0 121 286" fill="none" xmlns="http://www.w3.org/2000/svg">
<path d="M35.9235 102.501C35.9235 102.501 -32.0022 228.595 113.547 237.221L120.555 243.15V201.642L71.6554 186.548L70.2178 86.2808" fill="#E2E2E2"/>
<path d="M71.3574 165.755C59.7171 170.585 50.953 191.697 50.953 217.012C50.953 218.283 50.9753 219.544 51.0198 220.792C62.8744 228.043 78.865 233.464 100.176 236.032C101.348 229.76 101.93 223.392 101.914 217.012C101.941 209.669 101.161 202.344 99.5908 195.171L71.6556 186.548L71.3574 165.755Z" fill="black"/>
<path d="M44.9906 101.619L87.0722 98.7358L94.7242 101.852L98.3203 285.63H59.2339L63.3666 278.224L44.9906 101.619Z" fill="#EDEEEF"/>
<path d="M49.7447 13.2373V19.8797C49.7447 25.0159 53.2511 29.4885 58.2388 30.7144L68.8091 33.3124V7.34192L60.02 5.18172C57.545 4.57341 54.9277 5.13658 52.922 6.70903C50.9163 8.28149 49.7447 10.6887 49.7447 13.2373V13.2373Z" fill="#EDEEEF"/>
<path d="M49.7447 19.8799C49.7447 25.016 53.2511 29.4886 58.2388 30.7145L68.8091 33.3125" stroke="black" stroke-width="1.5" stroke-linecap="round" stroke-linejoin="round"/>
<path d="M60.514 18.562C60.7955 18.562 61.0237 18.3337 61.0237 18.0522C61.0237 17.7707 60.7955 17.5425 60.514 17.5425C60.2325 17.5425 60.0042 17.7707 60.0042 18.0522C60.0042 18.3337 60.2325 18.562 60.514 18.562Z" fill="black"/>
<path d="M52.6849 18.562C52.9664 18.562 53.1946 18.3337 53.1946 18.0522C53.1946 17.7707 52.9664 17.5425 52.6849 17.5425C52.4033 17.5425 52.1751 17.7707 52.1751 18.0522C52.1751 18.3337 52.4033 18.562 52.6849 18.562Z" fill="black"/>
<path d="M54.9816 21.0927V13.2373H51.0465" stroke="black" stroke-width="1.5" stroke-linecap="round" stroke-linejoin="round"/>
<path d="M61.4743 13.2373H57.5389" stroke="black" stroke-width="1.5" stroke-linecap="round" stroke-linejoin="round"/>
<path d="M67.5534 17.2627V19.9906C69.0249 19.9906 70.2178 18.7977 70.2178 17.3262C70.2178 17.2444 70.2142 17.1636 70.2069 17.0837C70.0577 15.4291 67.5534 15.6014 67.5534 17.2627Z" fill="#EDEEEF"/>
<path d="M67.5534 19.9906C69.0249 19.9906 70.2178 18.7977 70.2178 17.3262" stroke="black" stroke-width="1.5" stroke-linecap="round" stroke-linejoin="round"/>
<path d="M57.1335 22.0107C57.4643 22.3416 57.9131 22.5275 58.381 22.5275C58.8489 22.5275 59.2977 22.3416 59.6285 22.0107" stroke="#DC911B" stroke-width="1.5" stroke-linecap="round" stroke-linejoin="round"/>
<path d="M54.9818 21.0991L56.703 21.5222" stroke="black" stroke-width="1.5" stroke-linecap="round" stroke-linejoin="round"/>
<path d="M35.9236 60.8705V102.501L94.8982 116.996V70.631C94.8982 54.1909 83.6747 39.8748 67.7097 35.9509H67.7097C60.0534 34.0691 51.9571 35.8112 45.7524 40.6755C39.5478 45.5399 35.9236 52.9864 35.9236 60.8705V60.8705Z" fill="#DC911B"/>
<path d="M63.3668 278.224L44.9907 101.619" stroke="black" stroke-width="1.5" stroke-linecap="round" stroke-linejoin="round"/>
<path d="M55.8424 29.8223C55.8424 29.8223 55.8424 38.3661 41.3452 37.5967L38.0265 34.278C38.0265 34.278 39.8601 -3.55185 65.5966 1.36407C69.665 2.14118 73.2922 4.5505 75.2647 8.19264C77.4654 12.2561 77.819 18.1552 68.8858 24.5537" stroke="black" stroke-width="1.5" stroke-linecap="round" stroke-linejoin="round"/>
<path d="M36.7792 35.5737C36.914 35.5737 40.1037 38.8982 40.1037 38.8982" stroke="#DC911B" stroke-width="1.5" stroke-linecap="round" stroke-linejoin="round"/>
<path d="M49.7447 16.7368C49.7447 16.7368 58.4344 14.5804 61.0237 9.2793C61.0237 9.2793 63.8566 16.62 67.5534 17.2624" stroke="black" stroke-width="1.5" stroke-linecap="round" stroke-linejoin="round"/>
<path d="M36.1491 37.2363C36.1491 37.2363 26.9844 42.404 28.5418 54.983C29.0338 59.154 31.1285 62.9702 34.383 65.6248C36.0538 67.0293 38.3638 67.3959 40.3873 66.5777C42.4108 65.7595 43.8167 63.8904 44.0418 61.7194C44.3119 59.2715 44.8312 56.7582 45.7929 54.8632C49.7448 47.0762 37.8409 38.8985 37.8409 38.8985" stroke="black" stroke-width="1.5" stroke-linecap="round" stroke-linejoin="round"/>
<path d="M82.6801 43.7344C82.6801 43.7344 141.513 109.731 84.3683 143.515L75.024 127.855L88.3217 103.621L75.024 81.3386" stroke="black" stroke-width="1.5" stroke-linecap="round" stroke-linejoin="round"/>
<path d="M84.3683 143.514L69.7855 119.075" stroke="black" stroke-width="1.5" stroke-linecap="round" stroke-linejoin="round"/>
<path d="M14.0494 44.3157C13.5203 41.951 13.7562 39.4793 14.723 37.2572C17.4851 30.7724 25.04 14.7118 32.3084 14.2086C41.4227 13.5776 38.5475 21.6041 35.3129 23.5209C33.5079 24.6571 31.1999 24.61 29.4427 23.4011C29.4427 23.4011 20.7129 34.0084 21.6557 37.2979C21.6557 37.2979 26.6873 37.2979 25.0101 42.0898C23.5426 46.2828 15.9297 52.402 14.0494 44.3157Z" fill="#DC911B"/>
<path d="M21.2939 31.2262C21.2939 31.2262 28.1224 25.4524 21.2939 23.4758C14.4653 21.4991 -0.809128 42.7036 1.70666 66.0645C4.22245 89.4254 20.903 104.88 35.9236 92.1209" stroke="black" stroke-width="1.5" stroke-linecap="round" stroke-linejoin="round"/>
<path d="M21.5414 46.6494C21.5414 46.6494 22.6507 57.0791 26.1054 63.3686L29.9945 60.0321" stroke="black" stroke-width="1.5" stroke-linecap="round" stroke-linejoin="round"/>
</svg>
