<svg width="805" height="805" viewBox="0 0 805 805" fill="none" xmlns="http://www.w3.org/2000/svg">
<path d="M291.749 207.938L298.617 201.243" stroke="#949494" stroke-width="1.5"/>
<path d="M284.882 191.263L280.636 199.864L271.145 201.243L278.013 207.938L276.392 217.391L284.882 212.928L293.37 217.391" stroke="#949494" stroke-width="1.5"/>
<path d="M253.846 207.938L260.714 201.243" stroke="#949494" stroke-width="1.5"/>
<path d="M246.978 191.263L242.734 199.864L233.242 201.243L240.11 207.938L238.489 217.391L246.978 212.928L255.468 217.391" stroke="#949494" stroke-width="1.5"/>
<path d="M215.943 207.938L222.811 201.243" stroke="#949494" stroke-width="1.5"/>
<path d="M209.075 191.263L204.83 199.864L195.339 201.243L202.207 207.938L200.585 217.391L209.075 212.928L217.564 217.391" stroke="#949494" stroke-width="1.5"/>
<path d="M178.04 207.938L184.908 201.243" stroke="#949494" stroke-width="1.5"/>
<path d="M171.172 191.263L166.927 199.864L157.436 201.243L164.304 207.938L162.683 217.391L171.172 212.928L179.662 217.391" stroke="#949494" stroke-width="1.5"/>
<path d="M140.137 207.938L147.005 201.243" stroke="#949494" stroke-width="1.5"/>
<path d="M133.269 191.263L129.025 199.864L119.533 201.243L126.401 207.938L124.779 217.391L133.269 212.928L141.758 217.391" stroke="#949494" stroke-width="1.5"/>
<path d="M393.688 600.091L422.809 574.328H466.907V499.986H524.317V407.978L596.704 472.016V594.203H634.978V648.327H650.786V633.214H679.075V663.44" stroke="#949494"/>
<path d="M697.38 663.441H278.867" stroke="#949494" stroke-width="1.5"/>
<path d="M289.53 350.173C289.53 350.173 252.762 477.21 236.957 630.35L225.466 637.995L275.627 661.912L323.61 527.275" stroke="#949494"/>
<path d="M305.095 354.2L335.964 649.304L327.77 663.581M389.62 374.325L395.878 663.581" stroke="#949494"/>
<path d="M319.758 209.528C319.758 218.272 325.727 225.885 334.218 227.972L352.211 232.395" stroke="#949494" stroke-width="1.5"/>
<path d="M338.09 207.285C338.57 207.285 338.958 206.896 338.958 206.417C338.958 205.938 338.57 205.549 338.09 205.549C337.611 205.549 337.223 205.938 337.223 206.417C337.223 206.896 337.611 207.285 338.09 207.285Z" fill="#949494"/>
<path d="M324.763 207.285C325.242 207.285 325.631 206.896 325.631 206.417C325.631 205.938 325.242 205.549 324.763 205.549C324.284 205.549 323.895 205.938 323.895 206.417C323.895 206.896 324.284 207.285 324.763 207.285Z" fill="#949494"/>
<path d="M328.673 211.593V198.221H323.545" stroke="#949494" stroke-width="1.5"/>
<path d="M339.725 198.221H333.026" stroke="#949494" stroke-width="1.5"/>
<path d="M350.074 209.716C352.579 209.716 354.61 207.686 354.61 205.181" stroke="#949494" stroke-width="1.5"/>
<path d="M332.336 213.156C333.509 214.328 335.411 214.328 336.583 213.156" stroke="#949494" stroke-width="1.5" stroke-linecap="round" stroke-linejoin="round"/>
<path d="M328.673 211.604L331.603 212.324" stroke="#949494" stroke-width="1.5" stroke-linecap="round"/>
<path d="M289.53 279.306V350.173L389.921 374.847V295.921C389.921 267.935 370.816 243.565 343.639 236.886H343.639C330.605 233.682 316.823 236.648 306.261 244.928C295.699 253.209 289.53 265.885 289.53 279.306V279.306Z" stroke="#949494"/>
<path d="M319.071 206.417L309.129 200.966C309.129 200.966 323.66 159.363 353.485 177.717C383.31 196.071 352.211 217.025 352.211 217.025" stroke="#949494" stroke-width="1.5"/>
<path d="M318.357 199.232C318.357 199.232 338.092 196.051 344.964 186.404C344.964 186.404 342.169 200.372 350.453 203.779" stroke="#949494" stroke-width="1.5"/>
<path d="M366.418 247.903C366.418 247.903 400.441 271.829 415.124 305.225C415.124 305.225 409.923 243.792 417.265 233.697C421.141 228.368 425.524 235.602 425.524 235.602C425.524 235.602 444.796 227.579 445.408 230.638C446.02 233.697 434.701 245.321 434.701 245.321C434.701 245.321 451.22 321.367 438.372 343.086C425.524 364.805 360.368 321.49 360.368 321.49" stroke="#949494" stroke-width="1.5"/>
<path d="M367.387 325.907C367.387 325.907 367.524 355.731 389.922 368.418V338.259L367.387 325.907Z" fill="#949494"/>
<path d="M306.674 244.613C306.674 244.613 276.449 267.013 270.739 289.561C270.739 289.561 261.358 228.533 256.056 229.943C250.753 231.352 249.53 235.602 249.53 235.602C249.53 235.602 232.807 226.854 230.36 229.918C227.913 232.983 245.043 249.706 245.043 249.706C245.043 249.706 234.68 322.636 246.675 332.503C271.962 353.304 289.529 323.53 289.529 323.53" stroke="#949494" stroke-width="1.5"/>
<path d="M625.034 241.21H524.86L499.905 267.26V241.21L491.842 241.21H458.824V129.637L625.034 129.637V241.21Z" stroke="#949494"/>
<rect x="579.806" y="190.531" width="10.2167" height="10.2167" transform="rotate(-180 579.806 190.531)" stroke="#949494"/>
<rect x="547.038" y="190.531" width="10.2166" height="10.2167" transform="rotate(-180 547.038 190.531)" stroke="#949494"/>
<rect x="514.27" y="190.531" width="10.2167" height="10.2167" transform="rotate(-180 514.27 190.531)" stroke="#949494"/>
</svg>
