<svg width="435" height="324" viewBox="0 0 435 324" fill="none" xmlns="http://www.w3.org/2000/svg">
<rect x="189.908" y="14.8376" width="234.172" height="145.31" fill="#EDEEEF"/>
<rect x="254.328" y="6.88599" width="105.332" height="18.4989" fill="#FF6498"/>
<path d="M306.994 14.4346C310.94 14.4346 314.14 11.2439 314.14 7.308C314.14 3.37209 310.94 0.181396 306.994 0.181396C303.047 0.181396 299.848 3.37209 299.848 7.308C299.848 11.2439 303.047 14.4346 306.994 14.4346Z" fill="#FF6498"/>
<rect x="254.328" y="6.88599" width="105.332" height="18.4989" fill="#DC911B"/>
<path d="M306.994 14.4346C310.94 14.4346 314.14 11.2439 314.14 7.308C314.14 3.37209 310.94 0.181396 306.994 0.181396C303.047 0.181396 299.848 3.37209 299.848 7.308C299.848 11.2439 303.047 14.4346 306.994 14.4346Z" fill="#DC911B"/>
<path d="M359.66 6.88586V25.3848H254.328" stroke="black" stroke-width="1.5" stroke-linecap="round" stroke-linejoin="round"/>
<path d="M424.08 14.8378V160.147H189.908" stroke="black" stroke-width="1.5" stroke-linecap="round" stroke-linejoin="round"/>
<path d="M180.252 256.846H433.735" stroke="black" stroke-width="1.5" stroke-linecap="round" stroke-linejoin="round"/>
<path d="M244.543 160.147L206.241 256.846" stroke="black" stroke-width="1.5" stroke-linecap="round" stroke-linejoin="round"/>
<path d="M369.444 160.147L407.746 256.846" stroke="black" stroke-width="1.5" stroke-linecap="round" stroke-linejoin="round"/>
<path d="M218.243 223.303H395.744" stroke="black" stroke-width="1.5" stroke-linecap="round" stroke-linejoin="round"/>
<path d="M81.7378 62.6394L100.646 59.0054C91.906 64.7801 91.6453 65.0047 82.0957 73.233L81.7378 73.5414C81.7378 68.3274 81.7376 65.9574 81.7378 62.6394Z" fill="black"/>
<path d="M131.456 191.567L81.7378 168.973C81.7378 168.973 83.2597 156.505 81.7378 138.479L100.011 135.477L99.8561 147.801L159.106 180.349L131.456 191.567Z" fill="black"/>
<path d="M81.7378 62.6394L100.646 59.0054C91.906 64.7801 91.6453 65.0047 82.0957 73.233L81.7378 73.5414C81.7378 68.3274 81.7376 65.9574 81.7378 62.6394Z" stroke="black"/>
<path d="M131.456 191.567L81.7378 168.973C81.7378 168.973 83.2597 156.505 81.7378 138.479L100.011 135.477L99.8561 147.801L159.106 180.349L131.456 191.567Z" stroke="black"/>
<path d="M176.72 133.751C176.72 133.751 237.973 154.064 261.078 223.945L271.223 228.454L238.536 238.598L185.562 181.468L148.127 156.549" fill="#E2E2E2"/>
<path d="M199.264 254.358C215.564 142.979 159.075 138.555 159.075 138.555L132.965 181.468L158.826 180.359L165.913 266.524L204.252 263L199.264 254.358Z" fill="#EDEEEF"/>
<path d="M199.264 254.358C215.564 142.979 159.075 138.555 159.075 138.555" stroke="black" stroke-width="1.5" stroke-linecap="round" stroke-linejoin="round"/>
<path d="M146.016 123.402L84.3624 138.555C84.3624 138.555 80.2847 185.851 146.016 181.468L181.617 131.63L146.016 123.402Z" fill="#EDEEEF"/>
<path d="M146.016 181.468L181.617 131.629" stroke="black" stroke-width="1.5" stroke-linecap="round" stroke-linejoin="round"/>
<path d="M84.3624 138.555C84.3624 138.555 80.2847 185.851 146.016 181.468" stroke="black" stroke-width="1.5" stroke-linecap="round" stroke-linejoin="round"/>
<path d="M102.927 30.0838V37.0279C102.927 42.3973 106.592 47.0731 111.807 48.3546L122.857 51.0706V23.9205L113.669 21.6622C111.081 21.0263 108.345 21.615 106.248 23.2589C104.152 24.9028 102.927 27.4193 102.927 30.0837V30.0838Z" fill="#EDEEEF"/>
<path d="M102.927 37.028C102.927 42.3974 106.592 47.0731 111.807 48.3547L122.857 51.0707" stroke="black" stroke-width="1.5" stroke-linecap="round" stroke-linejoin="round"/>
<path d="M114.185 35.6501C114.479 35.6501 114.718 35.4116 114.718 35.1172C114.718 34.8229 114.479 34.5844 114.185 34.5844C113.891 34.5844 113.652 34.8229 113.652 35.1172C113.652 35.4116 113.891 35.6501 114.185 35.6501Z" fill="black"/>
<path d="M106 35.6501C106.295 35.6501 106.533 35.4116 106.533 35.1172C106.533 34.8229 106.295 34.5844 106 34.5844C105.706 34.5844 105.467 34.8229 105.467 35.1172C105.467 35.4116 105.706 35.6501 106 35.6501Z" fill="black"/>
<path d="M108.402 38.2962V30.084H104.288" stroke="black" stroke-width="1.5" stroke-linecap="round" stroke-linejoin="round"/>
<path d="M115.189 30.0839H111.075" stroke="black" stroke-width="1.5" stroke-linecap="round" stroke-linejoin="round"/>
<path d="M121.544 34.2916V37.1435C123.083 37.1435 124.33 35.8964 124.33 34.358C124.33 34.2726 124.326 34.1881 124.318 34.1045C124.162 32.3748 121.544 32.5549 121.544 34.2916Z" fill="#EDEEEF"/>
<path d="M121.544 37.1434C123.083 37.1434 124.33 35.8963 124.33 34.3579" stroke="black" stroke-width="1.5" stroke-linecap="round" stroke-linejoin="round"/>
<path d="M110.651 39.2556C110.997 39.6015 111.466 39.7958 111.955 39.7958C112.444 39.7958 112.914 39.6015 113.259 39.2556" stroke="#DC911B" stroke-width="1.5" stroke-linecap="round" stroke-linejoin="round"/>
<path d="M108.402 38.3026L110.201 38.7449" stroke="black" stroke-width="1.5" stroke-linecap="round" stroke-linejoin="round"/>
<path d="M102.352 27.1709L117.882 27.9223C117.882 27.9223 118.77 33.0118 121.544 33.5582" stroke="black" stroke-width="1.5" stroke-linecap="round" stroke-linejoin="round"/>
<path d="M102.352 40.5716L95.3385 38.2961C95.3385 38.2961 95.7143 11.7661 118.258 15.7739C118.258 15.7739 132.535 16.3478 134.038 31.7525C135.541 47.1572 135.306 48.1435 135.306 48.1435L122.857 45.2056" stroke="black" stroke-width="1.5" stroke-linecap="round" stroke-linejoin="round"/>
<path d="M146.016 79.8806V123.402L84.3623 138.555V90.0845C84.3623 72.8976 96.0957 57.9312 112.786 53.8291H112.786C120.79 51.8618 129.254 53.6831 135.74 58.7683C142.227 63.8536 146.016 71.6384 146.016 79.8806V79.8806Z" fill="#DC911B"/>
<path d="M102.352 58.1506C102.352 58.1506 61.5793 82.4924 46.9268 119.124C32.2743 155.755 106.047 133.226 106.047 133.226C106.047 133.226 118.045 134.009 122.554 128.366L128.023 127.824L127.375 125.235L81.7876 115.215L102.927 95.798" stroke="black" stroke-width="1.5" stroke-linecap="round" stroke-linejoin="round"/>
<path d="M81.7875 115.215L98.5072 118.89C86.3096 114.379 99.312 99.1191 99.3152 99.1154L81.7875 115.215Z" fill="black"/>
<path d="M107.702 120.911C107.191 120.542 105.782 120.208 103.215 119.925L107.702 120.911Z" fill="black"/>
<path d="M140.726 63.8752L159.075 91.67C159.075 91.67 165.198 58.6064 173.715 55.6006C182.231 52.5948 186.239 51.0707 186.239 51.0707L187.192 54.0787L183.233 58.1506C183.233 58.1506 187.076 66.6218 180.646 68.6257C180.646 68.6257 199.679 122.686 160.897 126.841" stroke="black" stroke-width="1.5" stroke-linecap="round" stroke-linejoin="round"/>
<path d="M161.99 197.887C161.99 230.196 135.799 256.387 103.49 256.387C71.1812 256.387 44.9899 230.196 44.9899 197.887C44.9899 165.579 71.1812 139.387 103.49 139.387C135.799 139.387 161.99 165.579 161.99 197.887Z" fill="#EDEEEF" stroke="#EDEEEF" stroke-width="1.5"/>
<circle cx="99.2239" cy="198.361" r="65.926" stroke="black" stroke-width="1.5"/>
<ellipse cx="95.4319" cy="198.361" rx="10.428" ry="10.428" fill="black"/>
</svg>
