<svg width="332" height="307" viewBox="0 0 332 307" fill="none" xmlns="http://www.w3.org/2000/svg">
<path d="M62.3769 110.895L30.2484 100.671L29.2284 304.521H66.3681L62.3769 295.602C80.3373 231.195 62.3769 110.895 62.3769 110.895Z" fill="#DC911B"/>
<path d="M53.103 236.216C53.103 188.471 43.4098 149.766 31.4528 149.766C30.9626 149.769 30.4748 149.835 30.0017 149.964L29.2284 304.521H44.7232C49.8217 288.705 53.103 263.992 53.103 236.216Z" fill="black"/>
<path d="M51.7847 113.387C51.7847 113.387 59.4558 238.592 37.7896 297.872L42.3154 304.521H3.77959C3.77959 304.521 0.0218658 151.205 0.0218658 116.832L51.7847 113.387Z" fill="#DC911B"/>
<path d="M43.6014 16.5149V32.7866L23.4443 37.7408V10.2815L43.6014 5.32727V16.5149Z" fill="#EDEEEF"/>
<path d="M30.2485 25.0309C30.2485 25.0309 35.1569 23.4159 36.7719 25.8859C36.7719 25.8859 38.82 23.5881 41.4585 25.4426" stroke="#DC911B" stroke-width="1.5" stroke-linecap="round" stroke-linejoin="round"/>
<path d="M32.2148 22.1445C32.5125 22.1445 32.7538 21.9032 32.7538 21.6056C32.7538 21.3079 32.5125 21.0667 32.2148 21.0667C31.9172 21.0667 31.6759 21.3079 31.6759 21.6056C31.6759 21.9032 31.9172 22.1445 32.2148 22.1445Z" fill="black"/>
<path d="M40.4928 22.1445C40.7905 22.1445 41.0318 21.9032 41.0318 21.6056C41.0318 21.3079 40.7905 21.0667 40.4928 21.0667C40.1952 21.0667 39.9539 21.3079 39.9539 21.6056C39.9539 21.9032 40.1952 22.1445 40.4928 22.1445Z" fill="black"/>
<path d="M38.0645 24.8208V16.5149H42.2255" stroke="black" stroke-width="1.5"/>
<path d="M31.1993 16.515H35.3602" stroke="black" stroke-width="1.5"/>
<path d="M42.8727 15.1549H42.8727" stroke="black" stroke-width="1.5"/>
<path d="M24.7718 20.7706V23.6549C23.2159 23.6549 21.9546 22.3937 21.9546 20.8378C21.9546 20.7513 21.9584 20.6659 21.9661 20.5814C22.124 18.832 24.7718 19.0142 24.7718 20.7706Z" fill="#EDEEEF"/>
<path d="M24.7718 23.6549C23.2159 23.6549 21.9546 22.3936 21.9546 20.8378" stroke="black" stroke-width="1.5"/>
<path d="M35.6155 26.8682C34.7354 26.8682 34.0219 26.1547 34.0219 25.2746" stroke="#DC911B" stroke-width="1.5" stroke-linecap="round" stroke-linejoin="round"/>
<path d="M29.2283 36.319L23.444 37.7407" stroke="black" stroke-width="1.5"/>
<path d="M38.0643 24.8272L36.2444 25.2745" stroke="black" stroke-width="1.5" stroke-linecap="round"/>
<path d="M62.377 66.8784V110.895L0.0218506 126.221V77.1984C0.0218545 59.8159 11.8887 44.6792 28.7688 40.5303H28.7689C36.864 38.5407 45.4244 40.3827 51.9847 45.5258C58.545 50.669 62.377 58.5423 62.377 66.8784L62.377 66.8784Z" fill="#EDEEEF"/>
<path d="M25.763 21.6055C25.763 21.6055 22.723 31.5857 29.8163 36.779C36.4205 41.6143 46.8307 38.7834 44.3674 27.4732C43.856 25.113 43.5992 22.7047 43.6016 20.2896V19.6157" stroke="#DC911B" stroke-width="1.5" stroke-linecap="round" stroke-linejoin="round"/>
<path d="M23.3633 19.3595C23.3633 19.3595 16.6577 7.07931 26.9831 4.86671C26.9831 4.86671 31.1818 -0.37795 37.1543 2.16243C43.1268 4.70281 45.995 2.91964 46.0769 5.32726C46.1589 7.73488 46.4525 11.7503 43.6014 13.799" stroke="#DC911B" stroke-width="1.5" stroke-linecap="round" stroke-linejoin="round"/>
<path d="M27.5359 19.3576L29.2283 12.4591C29.2283 12.4591 41.5532 12.6491 43.6012 9.29248" stroke="#DC911B" stroke-width="1.5" stroke-linecap="round" stroke-linejoin="round"/>
<path d="M51.7846 113.387C51.7846 113.387 59.4558 238.592 37.7895 297.872L42.3153 304.521" stroke="black" stroke-width="1.5"/>
<path d="M12.8005 48.8817C12.8005 48.8817 2.32936 90.2326 14.996 105.686C27.6627 121.139 86.9427 112.019 104.169 95.2992C104.169 95.2992 110.249 93.7792 111.516 90.7392C111.516 90.7392 117.343 95.0459 117.089 92.2592C116.836 89.4726 114.809 80.7884 104.423 82.9771C94.036 85.1659 43.6013 86.1792 43.6013 86.1792L44.7368 64.3926" stroke="black" stroke-width="1.5"/>
<path d="M59.5025 54.6887C59.5025 54.6887 67.121 69.4551 66.1386 85.5439" stroke="black" stroke-width="1.5"/>
<path d="M63.6669 120.44C63.6669 120.44 83.9642 128.501 92.5468 102.907" stroke="black" stroke-width="1.5"/>
<path d="M73.0246 85.2853C73.0246 85.2853 94.5311 74.1773 97.8361 78.8326L101.141 83.4879" stroke="black" stroke-width="1.5"/>
<path d="M274.021 1.46796H135.619V89.8417L91.1172 134.344V304.521H73.0245" stroke="black" stroke-width="1.5"/>
<path d="M96.0286 305.471H331.978" stroke="black" stroke-width="1.5"/>
<path d="M304.072 303.615C304.072 303.615 308.137 296.422 297.817 294.858C291.684 293.91 285.409 294.668 279.678 297.047C279.678 297.047 286.871 288.291 275.613 284.538C264.354 280.785 252.783 289.542 252.783 289.542C252.783 289.542 264.041 268.588 255.285 267.024C246.528 265.461 241.837 274.53 241.837 274.53C241.837 274.53 242.775 248.573 224.636 247.947C206.497 247.322 208.374 281.098 208.374 281.098C208.374 281.098 200.555 266.086 187.42 265.461C174.285 264.835 180.853 290.606 180.853 290.606C180.853 290.606 178.351 284.538 169.594 283.912C160.838 283.287 161.463 290.626 161.463 290.626C161.463 290.626 150.204 274.843 137.695 275.781C125.185 276.719 130.502 292.356 130.502 292.356C117.68 291.418 114.865 305.471 114.865 305.471H313.141L304.072 303.615Z" fill="black"/>
<rect x="141.624" y="151.363" width="152.029" height="88.7808" fill="black"/>
<rect x="121.991" y="131.73" width="152.029" height="88.7808" fill="#EDEEEF"/>
<path d="M274.021 131.778V220.559L121.991 220.463" stroke="black" stroke-width="1.5"/>
<path d="M139.13 209.142C142.279 209.142 144.831 206.589 144.831 203.44C144.831 200.291 142.279 197.739 139.13 197.739C135.981 197.739 133.428 200.291 133.428 203.44C133.428 206.589 135.981 209.142 139.13 209.142Z" fill="#D6D6D6"/>
<path d="M256.881 154.502C260.03 154.502 262.583 151.95 262.583 148.801C262.583 145.652 260.03 143.099 256.881 143.099C253.732 143.099 251.18 145.652 251.18 148.801C251.18 151.95 253.732 154.502 256.881 154.502Z" fill="#D6D6D6"/>
<path d="M256.881 209.142C260.03 209.142 262.583 206.589 262.583 203.44C262.583 200.291 260.03 197.739 256.881 197.739C253.732 197.739 251.18 200.291 251.18 203.44C251.18 206.589 253.732 209.142 256.881 209.142Z" fill="#D6D6D6"/>
<path d="M139.13 154.502C142.279 154.502 144.831 151.95 144.831 148.801C144.831 145.652 142.279 143.099 139.13 143.099C135.981 143.099 133.428 145.652 133.428 148.801C133.428 151.95 135.981 154.502 139.13 154.502Z" fill="#D6D6D6"/>
</svg>
