<svg width="389" height="311" viewBox="0 0 389 311" fill="none" xmlns="http://www.w3.org/2000/svg">
<path d="M237.445 164.028C277.626 164.028 310.199 131.455 310.199 91.2743C310.199 51.0936 277.626 18.5207 237.445 18.5207C197.264 18.5207 164.691 51.0936 164.691 91.2743C164.691 131.455 197.264 164.028 237.445 164.028Z" fill="#EDEEEF"/>
<path fill-rule="evenodd" clip-rule="evenodd" d="M237.445 164.028C277.626 164.028 310.199 131.455 310.199 91.2743C310.199 51.0936 277.626 18.5207 237.445 18.5207C197.264 18.5207 164.691 51.0936 164.691 91.2743C164.691 131.455 197.264 164.028 237.445 164.028Z" stroke="black" stroke-width="1.5"/>
<rect x="210.997" y="0.155273" width="52.8956" height="182.238" fill="#EDEEEF"/>
<path d="M145.309 68.6193L171.757 22.8104L329.58 113.93L303.132 159.738L145.309 68.6193Z" fill="#EDEEEF"/>
<path d="M171.757 159.738L145.309 113.929L303.132 22.8103L329.58 68.6192L171.757 159.738Z" fill="#EDEEEF"/>
<path d="M237.445 109.463C247.49 109.463 255.633 101.32 255.633 91.2745C255.633 81.2293 247.49 73.0861 237.445 73.0861C227.4 73.0861 219.256 81.2293 219.256 91.2745C219.256 101.32 227.4 109.463 237.445 109.463Z" fill="#DC911B"/>
<path d="M219.257 91.2745C219.257 81.2293 227.4 73.0861 237.445 73.0861" stroke="black" stroke-width="1.5"/>
<path d="M179.202 294.931C172.933 229.384 134.005 132.402 134.005 132.402L99.9756 111.4L103.737 163.837L108.808 213.89L151.844 310.703L191.172 298.351L179.202 294.931Z" fill="#E2E2E2"/>
<path d="M123.864 119.569C123.864 119.569 131.535 244.774 109.869 304.054L114.395 310.703H75.8591C75.8591 310.703 71.6492 151.449 71.6492 117.076L123.864 119.569Z" fill="#EDEEEF"/>
<path d="M110.184 22.6963V38.9679L90.0266 43.9221V16.4629L110.184 11.5086V22.6963Z" fill="#EDEEEF"/>
<path d="M98.797 28.3259C99.0947 28.3259 99.336 28.0846 99.336 27.7869C99.336 27.4892 99.0947 27.2479 98.797 27.2479C98.4994 27.2479 98.2581 27.4892 98.2581 27.7869C98.2581 28.0846 98.4994 28.3259 98.797 28.3259Z" fill="black"/>
<path d="M107.075 28.3259C107.373 28.3259 107.614 28.0846 107.614 27.7869C107.614 27.4892 107.373 27.2479 107.075 27.2479C106.778 27.2479 106.536 27.4892 106.536 27.7869C106.536 28.0846 106.778 28.3259 107.075 28.3259Z" fill="black"/>
<path d="M104.646 31.0021V22.6963H108.807" stroke="black" stroke-width="1.5"/>
<path d="M97.7821 22.6963H101.943" stroke="black" stroke-width="1.5"/>
<path d="M91.3541 26.9519V29.8363C89.7982 29.8363 88.5369 28.575 88.5369 27.0191C88.5369 26.9327 88.5408 26.8472 88.5484 26.7627C88.7063 25.0133 91.3541 25.1955 91.3541 26.9519Z" fill="#EDEEEF"/>
<path d="M91.3541 29.8363C89.7982 29.8363 88.5369 28.575 88.5369 27.0192" stroke="black" stroke-width="1.5"/>
<path d="M102.827 33.0496C101.252 33.0496 99.9756 31.773 99.9756 30.1983" stroke="#FF6498" stroke-width="1.5" stroke-linecap="round" stroke-linejoin="round"/>
<path d="M110.184 38.9678L90.0265 43.922" stroke="black" stroke-width="1.5"/>
<path d="M104.647 31.0087L102.827 31.4559" stroke="black" stroke-width="1.5" stroke-linecap="round"/>
<path d="M110.868 15.6334C110.868 15.6334 105.849 19.3701 95.8418 18.2301C95.8418 18.2301 95.8418 24.8281 92.2952 26.8491" stroke="black" stroke-width="1.5"/>
<path d="M110.868 24.1201C110.868 24.1201 119.043 13.4801 107.221 10.5035C95.3985 7.5268 89.9518 13.3535 89.9518 13.3535C89.9518 13.3535 78.7685 15.1901 90.6302 35.6468" stroke="black" stroke-width="1.5"/>
<path d="M71.6492 73.0598V117.076L134.004 132.402V83.3798C134.004 65.9973 122.137 50.8606 105.257 46.7118H105.257C97.1621 44.7221 88.6017 46.5641 82.0414 51.7073C75.4811 56.8504 71.6492 64.7238 71.6492 73.0598L71.6492 73.0598Z" fill="#DC911B"/>
<path d="M123.864 119.569C123.864 119.569 131.535 244.773 109.869 304.053" stroke="black" stroke-width="1.5"/>
<path d="M78.1951 55.3801C78.1951 55.3801 44.2231 100.452 58.1852 127.037C72.1474 153.622 139.505 113.61 140.265 106.517C141.025 99.4236 125.183 103.224 125.183 103.224C125.183 103.224 127.092 90.3036 118.985 102.97L88.5373 106.264L98.4161 82.4502" stroke="black" stroke-width="1.5"/>
<path d="M91.8507 98.2756L88.537 106.264L111.362 103.795C106.056 101.014 99.3317 99.053 91.8507 98.2756Z" fill="black"/>
<path d="M71.838 135.767C71.8898 139.169 71.951 142.837 72.0204 146.729C88.1062 146.597 109.023 137.898 118.464 128.582L118.468 128.583C118.588 128.465 118.703 128.346 118.82 128.227C118.851 128.195 118.882 128.164 118.913 128.132C119.072 127.968 119.226 127.805 119.378 127.641C119.405 127.612 119.433 127.582 119.46 127.553C119.613 127.386 119.76 127.22 119.905 127.054C119.929 127.027 119.953 127 119.976 126.973C120.122 126.804 120.263 126.634 120.4 126.465C120.42 126.441 120.44 126.417 120.459 126.393C120.599 126.22 120.734 126.047 120.865 125.874C120.88 125.854 120.895 125.834 120.91 125.815C121.043 125.637 121.171 125.46 121.294 125.283C121.305 125.267 121.316 125.252 121.327 125.236C121.452 125.055 121.572 124.875 121.686 124.695C121.694 124.683 121.702 124.67 121.71 124.658C121.827 124.474 121.938 124.29 122.044 124.106L122.058 124.082C122.165 123.895 122.266 123.709 122.362 123.522L122.37 123.507C122.467 123.317 122.558 123.128 122.642 122.939L122.645 122.934C123.088 121.983 123.363 120.962 123.458 119.917C108.457 128.657 86.6394 137.765 71.838 135.767Z" fill="black"/>
<path d="M115.869 103.307L116.371 101.77C117.589 98.0469 120.772 95.3071 124.635 94.6576L145.555 91.1402C148.936 90.5719 152.276 92.3434 153.702 95.4603V95.4603C153.771 95.6105 153.931 95.6972 154.094 95.6728L197.772 89.1584L198.323 87.2864C198.553 86.5074 199.315 86.0113 200.12 86.1169L208.962 87.2765C209.734 87.3778 210.312 88.036 210.312 88.8149V89.8802C210.312 90.5177 209.922 91.0904 209.329 91.324L201.877 94.258C200.867 94.6556 199.716 94.3488 199.038 93.5014L198.152 92.3935L154.441 99.9625C154.328 99.9821 154.23 100.053 154.176 100.154L154.012 100.463C151.169 105.808 146.041 109.563 140.088 110.66L136.069 111.4" stroke="black" stroke-width="1.5"/>
<path d="M113.622 49.8531C113.622 49.8531 131.462 57.4335 157.682 94.6311" stroke="black" stroke-width="1.5"/>
<path d="M134.004 120.957C134.004 120.957 164.331 131.597 172.691 123.744C181.052 115.89 183.585 94.6311 183.585 94.6311" stroke="black" stroke-width="1.5"/>
<path d="M183.585 91.2743C183.585 91.2743 185.422 73.0135 185.232 67.6935C185.232 67.6935 188.371 69.4035 191.171 68.4535C191.171 68.4535 193.021 71.4935 194.351 71.3035C195.681 71.1135 195.111 64.8435 189.981 58.3835C184.851 51.9235 161.999 51.9652 155.28 91.2743" stroke="black" stroke-width="1.5"/>
<path d="M81.3405 267.481C79.6812 262.835 74.8205 268.971 74.8205 268.971C74.8205 268.971 80.6768 256.53 74.8205 253.709C71.9316 252.318 70.4114 253.955 69.612 255.97C72.6085 237.881 73.2551 202.99 61.1607 201.775C47.9497 200.448 52.4699 233.964 52.4699 233.964C52.4699 233.964 48.8196 224.341 44.174 228.655C39.5284 232.969 48.4877 261.175 48.4877 261.175C47.4922 258.189 42.1827 255.866 40.1916 261.175C38.2005 266.485 45.833 277.768 45.833 277.768L72.0488 282.082C72.0488 282.082 82.9997 272.126 81.3405 267.481Z" fill="black"/>
<path d="M79.3899 309.958H41.8511L33.55 276.413H87.691L79.3899 309.958Z" fill="#DC911B"/>
<path d="M0 309.958H125.183" stroke="black" stroke-width="1.5"/>
<path d="M33.5497 276.413H87.6907" stroke="black" stroke-width="1.5"/>
<path d="M382.915 309.958H245.196L297.997 192.423H382.915V309.958Z" fill="black"/>
<rect x="188.229" y="293.168" width="89.8164" height="16.7906" fill="#EDEEEF"/>
<rect x="203.226" y="276.377" width="89.8165" height="16.7908" fill="#EDEEEF"/>
<rect x="218.223" y="259.586" width="89.8165" height="16.7908" fill="#EDEEEF"/>
<rect x="233.22" y="242.796" width="89.8164" height="16.7906" fill="#EDEEEF"/>
<rect x="248.218" y="226.005" width="89.8165" height="16.7907" fill="#EDEEEF"/>
<rect x="263.215" y="209.214" width="89.8163" height="16.7907" fill="#EDEEEF"/>
<rect x="278.212" y="192.423" width="89.8164" height="16.7907" fill="#EDEEEF"/>
<path d="M188.23 293.167H278.046V309.958H188.23" stroke="black" stroke-width="1.5"/>
<path d="M203.227 276.377H293.043V293.167H203.227" stroke="black" stroke-width="1.5"/>
<path d="M218.224 259.586H308.04V276.377H218.224" stroke="black" stroke-width="1.5"/>
<path d="M233.22 242.796H323.037V259.586H233.22" stroke="black" stroke-width="1.5"/>
<path d="M248.218 226.005H338.034V242.796H248.218" stroke="black" stroke-width="1.5"/>
<path d="M263.215 209.214H353.031V226.005" stroke="black" stroke-width="1.5"/>
<path d="M278.212 192.423H368.028V209.214H278.212" stroke="black" stroke-width="1.5"/>
<path d="M182.901 309.958H388.244" stroke="black" stroke-width="1.5"/>
</svg>
