<svg width="381" height="322" viewBox="0 0 381 322" fill="none" xmlns="http://www.w3.org/2000/svg">
<path d="M366.83 31.7538C337.067 31.7538 311.598 19.0273 301.125 1.00008C290.652 19.0273 265.183 31.7538 235.42 31.7538C231.135 31.7553 226.853 31.4867 222.602 30.9498V129.357C222.602 152.638 235.022 174.149 255.183 185.789L301.125 212.314L347.067 185.789C367.228 174.149 379.648 152.638 379.648 129.357V30.9498C375.397 31.4867 371.115 31.7553 366.83 31.7538Z" fill="#EDEEEF"/>
<path d="M347.068 185.789C367.229 174.149 379.649 152.638 379.648 129.357V30.9498C375.397 31.4867 371.116 31.7552 366.83 31.7538C337.068 31.7538 311.598 19.0273 301.125 1V212.314L347.068 185.789Z" fill="#D6D6D6"/>
<path d="M301.125 212.314L347.068 185.789C367.229 174.149 379.649 152.637 379.648 129.357V30.9497C375.397 31.4867 371.116 31.7552 366.83 31.7538C337.068 31.7538 311.598 19.0273 301.125 1" stroke="black" stroke-width="1.5"/>
<path d="M236.69 303.828H212.918V293.77H188.629V281.883L170.541 265.881H143.151V219.706H107.492V162.558L62.5317 202.333V278.225H38.7594V311.843H28.9402V302.456H11.3695V321.23H248.576V314.343L236.69 303.828Z" fill="#F4F4F4"/>
<path d="M0 321.23H259.946" stroke="black" stroke-width="1.5"/>
<rect x="110.242" y="231.274" width="3.24777" height="2.87314" fill="white"/>
<rect x="118.144" y="231.274" width="3.24777" height="2.87314" fill="white"/>
<rect x="126.048" y="231.274" width="3.24774" height="2.87314" fill="white"/>
<rect x="110.242" y="239.021" width="3.24777" height="2.87323" fill="white"/>
<rect x="118.144" y="239.021" width="3.24777" height="2.87323" fill="white"/>
<rect x="126.048" y="239.021" width="3.24774" height="2.87323" fill="white"/>
<rect x="110.242" y="246.768" width="3.24777" height="2.87314" fill="white"/>
<rect x="118.144" y="246.768" width="3.24777" height="2.87314" fill="white"/>
<rect x="126.048" y="246.768" width="3.24774" height="2.87314" fill="white"/>
<rect x="110.242" y="254.514" width="3.24777" height="2.87311" fill="white"/>
<rect x="118.144" y="254.514" width="3.24777" height="2.87311" fill="white"/>
<rect x="126.048" y="254.514" width="3.24774" height="2.87311" fill="white"/>
<rect x="110.242" y="262.261" width="3.24777" height="2.87317" fill="white"/>
<rect x="118.144" y="262.261" width="3.24777" height="2.87317" fill="white"/>
<rect x="126.048" y="262.261" width="3.24774" height="2.87317" fill="white"/>
<rect x="110.242" y="270.008" width="3.24777" height="2.8732" fill="white"/>
<rect x="118.144" y="270.008" width="3.24777" height="2.8732" fill="white"/>
<rect x="126.048" y="270.008" width="3.24774" height="2.8732" fill="white"/>
<rect x="110.242" y="277.754" width="3.24777" height="2.8732" fill="white"/>
<rect x="118.144" y="277.754" width="3.24777" height="2.8732" fill="white"/>
<rect x="126.048" y="277.754" width="3.24774" height="2.8732" fill="white"/>
<rect x="110.242" y="285.501" width="3.24777" height="2.87314" fill="white"/>
<rect x="118.144" y="285.501" width="3.24777" height="2.87314" fill="white"/>
<rect x="126.048" y="285.501" width="3.24774" height="2.87314" fill="white"/>
<rect x="110.242" y="293.248" width="3.24777" height="2.8732" fill="white"/>
<rect x="118.144" y="293.248" width="3.24777" height="2.8732" fill="white"/>
<rect x="126.048" y="293.248" width="3.24774" height="2.8732" fill="white"/>
<path d="M180.05 131.358L149.782 126.654C149.782 126.654 127.479 233.064 139.448 312.45L135.918 320.28H176.02L187.407 199.191L180.05 131.358Z" fill="#E2E2E2"/>
<path d="M159.922 129.146C159.922 129.146 152.251 254.351 173.917 313.631L169.392 320.28H207.927C207.927 320.28 212.137 161.027 212.137 126.654L159.922 129.146Z" fill="#EDEEEF"/>
<path d="M159.922 129.146C159.922 129.146 152.251 254.351 173.917 313.631L169.392 320.28" stroke="black" stroke-width="1.5"/>
<path d="M187.407 32.2738V48.5454L167.249 53.4997V26.0404L187.407 21.0862V32.2738Z" fill="#EDEEEF"/>
<path d="M176.02 37.9034C176.318 37.9034 176.559 37.6621 176.559 37.3645C176.559 37.0668 176.318 36.8255 176.02 36.8255C175.723 36.8255 175.481 37.0668 175.481 37.3645C175.481 37.6621 175.723 37.9034 176.02 37.9034Z" fill="black"/>
<path d="M184.298 37.9034C184.596 37.9034 184.837 37.6621 184.837 37.3645C184.837 37.0668 184.596 36.8255 184.298 36.8255C184 36.8255 183.759 37.0668 183.759 37.3645C183.759 37.6621 184 37.9034 184.298 37.9034Z" fill="black"/>
<path d="M181.869 40.5797V32.2738H186.03" stroke="black" stroke-width="1.5"/>
<path d="M175.005 32.2738H179.166" stroke="black" stroke-width="1.5"/>
<path d="M168.577 36.5295V39.4138C167.021 39.4138 165.76 38.1525 165.76 36.5967C165.76 36.5102 165.764 36.4248 165.772 36.3403C165.93 34.5909 168.577 34.773 168.577 36.5295Z" fill="#EDEEEF"/>
<path d="M168.577 39.4139C167.021 39.4139 165.76 38.1526 165.76 36.5967" stroke="black" stroke-width="1.5"/>
<path d="M180.05 42.6271C178.475 42.6271 177.198 41.3505 177.198 39.7758" stroke="#DC911B" stroke-width="1.5" stroke-linecap="round" stroke-linejoin="round"/>
<path d="M187.407 48.5452L167.25 53.4995" stroke="black" stroke-width="1.5"/>
<path d="M181.87 40.5862L180.05 41.0335" stroke="black" stroke-width="1.5" stroke-linecap="round"/>
<path d="M149.782 82.6374V126.654L212.137 141.98V92.9574C212.137 75.5749 200.27 60.4381 183.39 56.2893H183.39C175.295 54.2997 166.735 56.1417 160.174 61.2848C153.614 66.4279 149.782 74.3013 149.782 82.6373L149.782 82.6374Z" fill="#DC911B"/>
<path d="M187.407 30.9138C187.407 30.228 194.848 18.068 176.559 17.8147C158.27 17.5614 167.169 35.1165 167.169 35.1165" stroke="black" stroke-width="1.5"/>
<path d="M168.577 33.0464C168.577 33.0464 171.253 29.0564 171.443 27.4414C171.443 27.4414 184.528 27.6314 186.678 24.5914" stroke="black" stroke-width="1.5"/>
<path d="M165.947 68.6474L157.004 115.222L160.297 123.835L168.577 116.742L168.024 68.9879L170.937 64.8079H163.97L165.947 68.6474Z" fill="black"/>
<path d="M199.545 64.808C199.545 64.808 273.283 136.501 193.863 181.721L185.37 168.421L202.603 123.835L186.03 100.781" stroke="black" stroke-width="1.5"/>
<path d="M193.864 181.721L177.363 155.881" stroke="black" stroke-width="1.5"/>
<path d="M154.619 67.1596C154.619 67.1596 118.429 123.282 143.163 165.865" stroke="black" stroke-width="1.5"/>
<path d="M268.862 111.048L273.564 106.346L297.555 130.336L292.853 135.039L268.862 111.048Z" fill="#DC911B"/>
<path d="M340.211 78.2756L344.913 82.9779L292.853 135.039L288.15 130.336L340.211 78.2756Z" fill="#DC911B"/>
<path d="M69.121 2.79373C58.1053 2.77416 49.1595 11.6882 49.1399 22.7038L89.0311 22.7748C89.0507 11.7592 80.1366 2.81333 69.121 2.79373Z" fill="#EDEEEF"/>
<path d="M110.672 11.4418C104.391 11.4306 99.291 16.5128 99.2798 22.7931L122.023 22.8335C122.028 19.8176 120.835 16.9231 118.707 14.7867C116.578 12.6503 113.688 11.4471 110.672 11.4418Z" fill="#EDEEEF"/>
<path d="M89.0681 1.91742C77.5489 1.89696 68.1941 11.2185 68.1736 22.7377L109.888 22.812C109.909 11.2927 100.587 1.93791 89.0681 1.91742Z" fill="#EDEEEF"/>
<path d="M45.4747 22.6974L127.464 22.8432" stroke="black" stroke-width="1.5"/>
<path d="M109.596 46.5035C118.726 46.4873 126.141 53.876 126.158 63.0066L93.0927 63.0654C93.0764 53.9348 100.465 46.5198 109.596 46.5035Z" fill="#EDEEEF"/>
<path d="M75.1553 53.6716C80.3609 53.6624 84.5884 57.8748 84.5977 63.0805L65.7465 63.114C65.742 60.6142 66.7308 58.215 68.4953 56.4442C70.2598 54.6734 72.6555 53.6761 75.1553 53.6716Z" fill="#EDEEEF"/>
<path d="M93.062 45.7771C102.61 45.7601 110.364 53.4866 110.381 63.0346L75.8045 63.0961C75.7875 53.5481 83.5139 45.7941 93.062 45.7771Z" fill="#EDEEEF"/>
<path d="M129.195 63.0011L61.2363 63.122" stroke="black" stroke-width="1.5"/>
<path d="M323.927 238.369C321.264 235.923 319.238 232.865 318.022 229.46C315.005 221.122 307.088 215.568 298.221 215.568C289.354 215.568 281.437 221.122 278.419 229.46C277.204 232.865 275.177 235.923 272.515 238.369C265.579 244.694 263.667 254.845 267.825 263.26C271.984 271.675 281.21 276.321 290.447 274.653C295.588 273.725 300.853 273.725 305.994 274.653C315.234 276.33 324.468 271.685 328.628 263.266C332.789 254.847 330.871 244.691 323.927 238.369H323.927Z" fill="#DC911B"/>
<path d="M290.447 274.653C295.588 273.725 300.853 273.725 305.994 274.653C312.135 275.762 318.451 274.091 323.241 270.092C328.031 266.093 330.802 260.176 330.807 253.937" stroke="black" stroke-width="1.5"/>
<path d="M256.054 321.23H340.387" stroke="black" stroke-width="1.5"/>
<path d="M298.221 260.045V321.23" stroke="black" stroke-width="1.5"/>
<path d="M307.152 251.113L298.221 260.045L289.289 251.113" stroke="black" stroke-width="1.5"/>
<path d="M262.949 274.902C261.46 273.534 260.327 271.825 259.648 269.921C257.96 265.259 253.534 262.154 248.576 262.154C243.619 262.154 239.192 265.259 237.505 269.921C236.826 271.825 235.693 273.534 234.204 274.902C230.326 278.438 229.257 284.114 231.582 288.819C233.907 293.523 239.066 296.121 244.23 295.189C247.104 294.67 250.048 294.67 252.923 295.189C258.089 296.126 263.251 293.529 265.578 288.822C267.904 284.115 266.831 278.437 262.949 274.902Z" fill="#DC911B"/>
<path d="M244.23 295.188C247.104 294.669 250.048 294.669 252.923 295.188C256.356 295.808 259.888 294.875 262.566 292.639C265.244 290.403 266.793 287.095 266.796 283.606" stroke="black" stroke-width="1.5"/>
<path d="M248.577 287.021V321.23" stroke="black" stroke-width="1.5"/>
<path d="M253.57 282.027L248.576 287.021L243.583 282.027" stroke="black" stroke-width="1.5"/>
</svg>
